<?xml version="1.0" encoding="UTF-8"?>
<svg version="1.1" xmlns="http://www.w3.org/2000/svg" width="1000" height="200">
<path d="M0 0 C1.18625977 0.5264209 1.18625977 0.5264209 2.39648438 1.06347656 C5.6511048 2.23421212 8.20557641 2.12951475 11.65625 1.984375 C12.92597656 1.95085938 14.19570313 1.91734375 15.50390625 1.8828125 C17.50535276 1.81629326 19.50690797 1.74968073 21.50732422 1.65722656 C32.75512703 1.16567024 32.75512703 1.16567024 36.01953125 3.35351562 C37.40625 5.015625 37.40625 5.015625 39 8 C37.39846104 12.1364902 34.39391011 14.76735145 31.1875 17.6875 C30.61652588 18.20916748 30.04555176 18.73083496 29.45727539 19.26831055 C23.7889127 24.34449094 17.76714703 29.46890078 11 33 C7.91893451 32.80174013 7.21201355 32.21201355 5 30 C5.55555556 25.44444444 5.55555556 25.44444444 7 24 C4.36 24 1.72 24 -1 24 C-2.33787245 28.29026517 -3.66952935 32.58243422 -5 36.875 C-5.3815625 38.09832031 -5.763125 39.32164063 -6.15625 40.58203125 C-6.5171875 41.74863281 -6.878125 42.91523437 -7.25 44.1171875 C-7.58515625 45.19597168 -7.9203125 46.27475586 -8.265625 47.38623047 C-9.09016345 49.86841146 -9.09016345 49.86841146 -9 52 C-8.04746338 51.68248779 -7.09492676 51.36497559 -6.11352539 51.0378418 C-0.24951172 49.08317057 5.61450195 47.12849935 11.47851562 45.17382812 C12.21401138 44.92848831 12.94950714 44.6831485 13.70729065 44.43037415 C15.16287157 43.94553128 16.61887197 43.46194585 18.07530212 42.97966003 C21.05683658 41.99107668 24.02784825 40.99000652 26.98461914 39.92895508 C28.9672313 39.21958009 30.98070686 38.59700841 33 38 C35.5625 39.3125 35.5625 39.3125 37 41 C37.33064453 39.44345703 37.33064453 39.44345703 37.66796875 37.85546875 C38.87478663 33.64590997 41.13208209 31.32937815 44.3125 28.3125 C45.25738281 27.40113281 46.20226562 26.48976563 47.17578125 25.55078125 C54.4287902 19 54.4287902 19 57.5 19 C60 20 60 20 62.5 22.0625 C65.32466501 24.25161538 66.52512531 24.39712854 70 24 C70.16193848 23.09544067 70.16193848 23.09544067 70.32714844 22.17260742 C71.44034992 18.57812991 74.43951442 16.63407178 77.25 14.3125 C77.82363281 13.81427734 78.39726563 13.31605469 78.98828125 12.80273438 C82.23581076 10.07673296 84.62565581 8.35356541 89 8 C92.44530607 12.11213951 94.06421926 14.91116215 94.28125 20.2734375 C94.33732422 21.5109375 94.33732422 21.5109375 94.39453125 22.7734375 C94.42933594 23.63195312 94.46414063 24.49046875 94.5 25.375 C94.75423873 32.74598215 94.75423873 32.74598215 96 40 C96.61488281 39.24074219 97.22976563 38.48148438 97.86328125 37.69921875 C98.67152344 36.70535156 99.47976563 35.71148437 100.3125 34.6875 C101.11300781 33.70136719 101.91351562 32.71523437 102.73828125 31.69921875 C103.85783203 30.36310547 103.85783203 30.36310547 105 29 C105.474375 28.4121875 105.94875 27.824375 106.4375 27.21875 C111.11561724 23.56981855 119.40004245 23.81514375 125.09765625 24.23046875 C132.97463957 24.95775342 132.97463957 24.95775342 140.015625 21.78125 C142.24413751 19.28643725 144.19253664 16.81160967 146 14 C148.85247499 15.37036427 150.94512712 16.55372277 153 19 C154.95889708 24.87669123 155.30052 31.90824954 154 38 C151.575695 42.05773865 148.52157214 44.89065203 145 48 C143.9529561 49.18569355 142.92635511 50.39036009 141.9375 51.625 C141.298125 52.40875 140.65875 53.1925 140 54 C135.80121077 53.32819372 132.6082848 51.13824284 129 49 C126.71294169 47.85647084 125.40735238 47.89665561 122.875 47.9375 C120.956875 47.9684375 120.956875 47.9684375 119 48 C119.27263672 48.67579102 119.54527344 49.35158203 119.82617188 50.04785156 C121.05789844 53.11242936 122.2790459 56.18111537 123.5 59.25 C124.14388672 60.84521484 124.14388672 60.84521484 124.80078125 62.47265625 C125.20683594 63.49746094 125.61289062 64.52226563 126.03125 65.578125 C126.40830078 66.52075195 126.78535156 67.46337891 127.17382812 68.43457031 C128 71 128 71 128 75 C128.66 75 129.32 75 130 75 C130.34611328 74.15501953 130.34611328 74.15501953 130.69921875 73.29296875 C134.78526164 66.09024449 143.20147152 60.62146474 149.875 55.8125 C150.92429687 55.05582031 151.97359375 54.29914063 153.0546875 53.51953125 C156 52 156 52 158.8828125 52.26171875 C159.58148437 52.50535156 160.28015625 52.74898437 161 53 C162.84446354 50.23642636 164.67358243 47.46302645 166.5 44.6875 C167.02464844 43.90181641 167.54929687 43.11613281 168.08984375 42.30664062 C168.58613281 41.54931641 169.08242188 40.79199219 169.59375 40.01171875 C170.05458984 39.31522217 170.51542969 38.61872559 170.99023438 37.90112305 C172.2345403 35.91719706 172.2345403 35.91719706 172 33 C171.0925 32.401875 170.185 31.80375 169.25 31.1875 C165.56219685 28.7053248 164.22188837 26.76011877 162 23 C163.29630899 20.30326081 164.7137343 17.81034386 166.3828125 15.328125 C167.04990234 14.33232422 167.04990234 14.33232422 167.73046875 13.31640625 C168.19066406 12.63449219 168.65085937 11.95257813 169.125 11.25 C169.82689453 10.20392578 169.82689453 10.20392578 170.54296875 9.13671875 C171.69322295 7.42307474 172.84633086 5.71134684 174 4 C180.5054871 5.38912093 184.02714471 10.00555335 188 15 C186.61219205 18.89006773 184.7847773 21.96558708 182.375 25.3125 C181.74335937 26.19550781 181.11171875 27.07851562 180.4609375 27.98828125 C179.97882813 28.65214844 179.49671875 29.31601563 179 30 C179.88751953 29.42378906 179.88751953 29.42378906 180.79296875 28.8359375 C187.284241 24.87552017 187.284241 24.87552017 190.875 25.5 C191.57625 25.995 192.2775 26.49 193 27 C193.53496094 27.37374756 194.06992187 27.74749512 194.62109375 28.13256836 C196.74148046 31.00417565 196.30966398 33.95932777 196.1875 37.37890625 C196.17046021 38.46896217 196.17046021 38.46896217 196.15307617 39.58103943 C196.10426052 42.68268077 196.02065443 45.78312322 195.93847656 48.8840332 C195.74231672 56.98078868 195.61770862 64.27208882 198.38330078 72.01196289 C199.31491035 75.01516823 198.9946245 77.04955927 198 80 C196.2578125 83.0703125 196.2578125 83.0703125 194.125 86.125 C193.42632813 87.13820313 192.72765625 88.15140625 192.0078125 89.1953125 C190.36700905 91.48732976 188.70658217 93.75675677 187 96 C183.59107693 94.80227027 181.23077319 93.87152719 179 91 C178.11427096 88.49092812 177.41515484 86.13964242 176.8125 83.5625 C176.55098145 82.46240601 176.55098145 82.46240601 176.28417969 81.34008789 C174.3467633 72.28522547 174.65731416 63.20492231 175 54 C174.55269531 54.44472656 174.10539063 54.88945313 173.64453125 55.34765625 C171.82362123 57.05209015 170.0754769 58.61373092 168 60 C166.32385894 59.7181489 164.65452673 59.38914033 163 59 C160.35546918 61.09730479 160.35546918 61.09730479 158 64.0625 C157.55922119 64.57256592 157.11844238 65.08263184 156.66430664 65.6081543 C154.50912695 68.11660283 152.45695355 70.69495045 150.4375 73.3125 C147.71193789 76.31760694 144.8769487 78.1372237 141.47265625 80.296875 C134.03730092 85.41822559 127.42873823 92.15312296 121.4375 98.875 C119 101 119 101 117 101.125 C111.69477506 98.14081097 109.25623507 94.03811895 107.28125 88.44140625 C106.94341492 87.50300148 106.94341492 87.50300148 106.59875488 86.54563904 C105.88580375 84.55571876 105.19259404 82.55958451 104.5 80.5625 C104.03645888 79.25799993 103.57162385 77.95395889 103.10546875 76.65039062 C102.18358238 74.06534845 101.26969136 71.47771569 100.36328125 68.88720703 C98.97752515 64.92795756 97.56931997 60.97691484 96.15625 57.02734375 C95.74181641 55.868396 95.32738281 54.70944824 94.90039062 53.51538086 C94.60326172 52.68530518 94.30613281 51.85522949 94 51 C92.2266195 53.66007075 90.7157096 56.30656579 89.20703125 59.12109375 C86.89325924 63.42710916 84.56831571 67.72653397 82.23046875 72.01953125 C80.4768863 75.24562548 78.74202531 78.47087426 77.11328125 81.76171875 C72.3362693 90.95213807 64.73635361 97.30958349 57 104 C50.18017634 100.83632007 47.99763323 95.25539312 45.5 88.5625 C45.19811768 87.76408691 44.89623535 86.96567383 44.58520508 86.14306641 C40.01189349 73.85344252 37.28391509 62.0080871 36 49 C35.443125 49.71285156 34.88625 50.42570312 34.3125 51.16015625 C30.15179011 56.3821283 26.03730473 61.12516208 20.8984375 65.390625 C18.99014951 67.00835062 17.24854813 68.71189195 15.5 70.5 C11.83749084 74.21178058 7.967178 77.61835905 4 81 C2.50919922 82.27230469 2.50919922 82.27230469 0.98828125 83.5703125 C-5.23318507 88.86317392 -11.50696397 94.08250524 -17.85546875 99.22265625 C-20.03470231 100.97255709 -20.03470231 100.97255709 -22 103 C-25.02183322 102.87705604 -26.12635917 101.8868333 -28.39453125 99.85546875 C-29.19246094 98.97503906 -29.99039062 98.09460938 -30.8125 97.1875 C-32.02873047 95.87845703 -32.02873047 95.87845703 -33.26953125 94.54296875 C-35 92 -35 92 -34.78320312 90.04541016 C-33.36731082 86.34767147 -30.45161265 83.93960781 -27.6875 81.1875 C-27.10548828 80.57712891 -26.52347656 79.96675781 -25.92382812 79.33789062 C-25.35470703 78.76619141 -24.78558594 78.19449219 -24.19921875 77.60546875 C-23.68190186 77.08106201 -23.16458496 76.55665527 -22.6315918 76.01635742 C-21 75 -21 75 -18.90942383 75.23950195 C-16.70524676 76.11739629 -15.54516249 77.22306314 -14 79 C-9.87582937 77.3383196 -6.93445961 74.37661982 -3.75 71.375 C-3.19570313 70.859375 -2.64140625 70.34375 -2.0703125 69.8125 C-0.7097288 68.54574965 0.64565837 67.27342185 2 66 C1.27039063 66.23074219 0.54078125 66.46148437 -0.2109375 66.69921875 C-3.80105435 67.82057623 -7.39774552 68.91840705 -11 70 C-11.76489746 70.22977539 -12.52979492 70.45955078 -13.31787109 70.69628906 C-15.7293991 71.41374427 -18.14511614 72.11505507 -20.5625 72.8125 C-21.72241455 73.15897583 -21.72241455 73.15897583 -22.90576172 73.51245117 C-29.42040732 75.36468239 -29.42040732 75.36468239 -33 74 C-35.3125 71.25 -35.3125 71.25 -37 68 C-36.57178201 64.48017786 -35.48076192 61.23811288 -34.328125 57.89453125 C-33.99562744 56.9195166 -33.66312988 55.94450195 -33.32055664 54.93994141 C-32.96727295 53.90788574 -32.61398926 52.87583008 -32.25 51.8125 C-29.71472035 44.28914155 -27.22869002 36.76388832 -25.0625 29.125 C-24.76424316 28.10369995 -24.76424316 28.10369995 -24.45996094 27.06176758 C-23.40401219 23.23700118 -22.9711216 19.88343898 -22.88671875 15.91015625 C-22.62265102 12.89405731 -22.34661109 11.42235065 -20.41235352 9.06542969 C-18.27623909 7.2943523 -16.09487229 5.7950019 -13.75 4.3125 C-12.98558594 3.77689453 -12.22117187 3.24128906 -11.43359375 2.68945312 C-5.12938234 -1.52968664 -5.12938234 -1.52968664 0 0 Z M71 45 C70.67 45.33 70.34 45.66 70 46 C68.31816052 46.23287008 66.6287584 46.41264166 64.9375 46.5625 C64.01839844 46.64628906 63.09929687 46.73007813 62.15234375 46.81640625 C61.44207031 46.87699219 60.73179687 46.93757813 60 47 C59.70214578 52.6666765 60.68918591 57.08825729 62.5 62.4375 C62.73847656 63.16904297 62.97695313 63.90058594 63.22265625 64.65429688 C63.80596172 66.4392116 64.40169935 68.22005557 65 70 C71.10951118 62.31497018 72.66134933 54.66304851 72 45 C71.67 45 71.34 45 71 45 Z " fill="#F1F1F1" transform="translate(513,45)"/>
<path d="M0 0 C5.82891054 2.43611475 9.39981432 10.38120192 11.95458984 15.81689453 C11.95458984 16.47689453 11.95458984 17.13689453 11.95458984 17.81689453 C12.69064453 18.01025391 13.42669922 18.20361328 14.18505859 18.40283203 C15.64878906 18.79341797 15.64878906 18.79341797 17.14208984 19.19189453 C18.58648437 19.57474609 18.58648437 19.57474609 20.06005859 19.96533203 C24.96348896 21.40790669 28.76424186 22.64490102 31.95458984 26.81689453 C31.62719444 30.5939195 29.63052325 32.65088963 27.14208984 35.37939453 C26.45501953 36.14380859 25.76794922 36.90822266 25.06005859 37.69580078 C23.13161532 39.63855532 21.18957024 41.24487461 18.95458984 42.81689453 C20.15083984 42.67251953 21.34708984 42.52814453 22.57958984 42.37939453 C23.31048828 42.29560547 24.04138672 42.21181641 24.79443359 42.12548828 C27.14924851 41.8352577 27.14924851 41.8352577 30.14208984 40.94189453 C32.95458984 40.81689453 32.95458984 40.81689453 35.89208984 42.87939453 C37.95458984 45.81689453 37.95458984 45.81689453 37.73974609 48.43017578 C36.76413035 52.63842876 35.64029741 56.78853032 34.45458984 60.94189453 C34.00625632 62.52771424 33.55832564 64.1136479 33.11083984 65.69970703 C32.91296875 66.39467285 32.71509766 67.08963867 32.51123047 67.80566406 C32.23569336 68.80122314 32.23569336 68.80122314 31.95458984 69.81689453 C31.7613916 70.50219238 31.56819336 71.18749023 31.36914062 71.89355469 C30.82894591 73.962054 30.82894591 73.962054 31.16552734 76.70751953 C31.4921466 83.3954376 30.83635729 87.1613911 26.55224609 92.29345703 C22.86930943 96.32263756 18.97941366 100.13066127 14.95458984 103.81689453 C11.47162625 103.07746803 8.90929265 101.65252722 5.87768555 99.7824707 C-1.71973997 95.13134791 -8.94383411 92.33746364 -17.66088867 90.48974609 C-22.40986473 89.44840557 -25.42229578 88.2802724 -29.04541016 84.81689453 C-28.49501879 80.78691031 -26.45300304 78.73732159 -23.73291016 75.81689453 C-22.95302734 74.97126953 -22.17314453 74.12564453 -21.36962891 73.25439453 C-20.60263672 72.45001953 -19.83564453 71.64564453 -19.04541016 70.81689453 C-18.37509766 70.05119141 -17.70478516 69.28548828 -17.01416016 68.49658203 C-15.04541016 66.81689453 -15.04541016 66.81689453 -13.00244141 66.57470703 C-11.94089844 66.75646484 -11.94089844 66.75646484 -10.85791016 66.94189453 C-10.07029297 67.07208984 -9.28267578 67.20228516 -8.47119141 67.33642578 C-7.67068359 67.49498047 -6.87017578 67.65353516 -6.04541016 67.81689453 C-5.29646484 67.94451172 -4.54751953 68.07212891 -3.77587891 68.20361328 C1.85718391 69.2789265 6.81171202 71.31232519 11.95458984 73.81689453 C12.28458984 71.50689453 12.61458984 69.19689453 12.95458984 66.81689453 C12.36556885 66.82736816 11.77654785 66.8378418 11.16967773 66.84863281 C8.45219339 66.89069007 5.73477789 66.91637633 3.01708984 66.94189453 C2.09089844 66.95865234 1.16470703 66.97541016 0.21044922 66.99267578 C-9.11419932 67.05811191 -16.67689433 66.40450609 -23.63525391 59.75048828 C-25.04541016 57.81689453 -25.04541016 57.81689453 -25.23291016 54.19189453 C-24.12259946 51.03627465 -22.77695961 48.65663564 -21.04541016 45.81689453 C-19.01761557 38.91474087 -18.40244757 32.12211537 -17.83447266 24.97509766 C-17.07130352 16.29733821 -14.80779088 12.05223833 -8.67041016 5.94189453 C-8.09291016 5.33603516 -7.51541016 4.73017578 -6.92041016 4.10595703 C-6.35580078 3.53876953 -5.79119141 2.97158203 -5.20947266 2.38720703 C-4.69852051 1.86916504 -4.18756836 1.35112305 -3.66113281 0.81738281 C-2.04541016 -0.18310547 -2.04541016 -0.18310547 0 0 Z M-0.04541016 38.81689453 C-0.70541016 40.46689453 -1.36541016 42.11689453 -2.04541016 43.81689453 C3.00461206 44.85279652 7.82875373 44.91941125 12.95458984 44.81689453 C11.67640933 42.2605335 10.78414041 42.19063137 8.14208984 41.25439453 C7.45501953 41.00560547 6.76794922 40.75681641 6.06005859 40.50048828 C4.03966996 39.84451795 2.0213947 39.30456759 -0.04541016 38.81689453 Z " fill="#E9E9E9" transform="translate(382.04541015625,56.18310546875)"/>
<path d="M0 0 C1.18625977 0.5264209 1.18625977 0.5264209 2.39648438 1.06347656 C5.6511048 2.23421212 8.20557641 2.12951475 11.65625 1.984375 C12.92597656 1.95085938 14.19570313 1.91734375 15.50390625 1.8828125 C17.50535276 1.81629326 19.50690797 1.74968073 21.50732422 1.65722656 C32.75512703 1.16567024 32.75512703 1.16567024 36.01953125 3.35351562 C37.40625 5.015625 37.40625 5.015625 39 8 C37.39846104 12.1364902 34.39391011 14.76735145 31.1875 17.6875 C30.61652588 18.20916748 30.04555176 18.73083496 29.45727539 19.26831055 C23.7889127 24.34449094 17.76714703 29.46890078 11 33 C7.91893451 32.80174013 7.21201355 32.21201355 5 30 C5.55555556 25.44444444 5.55555556 25.44444444 7 24 C4.36 24 1.72 24 -1 24 C-2.33787245 28.29026517 -3.66952935 32.58243422 -5 36.875 C-5.3815625 38.09832031 -5.763125 39.32164063 -6.15625 40.58203125 C-6.5171875 41.74863281 -6.878125 42.91523437 -7.25 44.1171875 C-7.58515625 45.19597168 -7.9203125 46.27475586 -8.265625 47.38623047 C-9.09016345 49.86841146 -9.09016345 49.86841146 -9 52 C-8.04746338 51.68248779 -7.09492676 51.36497559 -6.11352539 51.0378418 C-0.24951172 49.08317057 5.61450195 47.12849935 11.47851562 45.17382812 C12.21401138 44.92848831 12.94950714 44.6831485 13.70729065 44.43037415 C15.16287157 43.94553128 16.61887197 43.46194585 18.07530212 42.97966003 C21.05683658 41.99107668 24.02784825 40.99000652 26.98461914 39.92895508 C28.9672313 39.21958009 30.98070686 38.59700841 33 38 C35.5625 39.3125 35.5625 39.3125 37 41 C37.33064453 39.44345703 37.33064453 39.44345703 37.66796875 37.85546875 C38.87478663 33.64590997 41.13208209 31.32937815 44.3125 28.3125 C45.25738281 27.40113281 46.20226562 26.48976563 47.17578125 25.55078125 C54.4287902 19 54.4287902 19 57.5 19 C60 20 60 20 62.375 21.9375 C65.58962863 24.46327964 68.0535395 25.07142106 72 26 C72 26.33 72 26.66 72 27 C65.51537118 28.02388876 61.16122028 24.42721347 56 21 C53.87453098 22.9578264 51.74960666 24.91623817 49.625 26.875 C49.02171875 27.43058594 48.4184375 27.98617187 47.796875 28.55859375 C46.92675781 29.36103516 46.92675781 29.36103516 46.0390625 30.1796875 C45.50490723 30.67194824 44.97075195 31.16420898 44.42041016 31.67138672 C39.16072497 36.59115413 39.76788097 42.45032478 39.4375 49.3125 C39.39431641 50.14845703 39.35113281 50.98441406 39.30664062 51.84570312 C39.20114693 53.89696935 39.10012685 55.9484648 39 58 C38.34 58 37.68 58 37 58 C36.505 53.545 36.505 53.545 36 49 C35.443125 49.71285156 34.88625 50.42570312 34.3125 51.16015625 C30.15179011 56.3821283 26.03730473 61.12516208 20.8984375 65.390625 C18.99014951 67.00835062 17.24854813 68.71189195 15.5 70.5 C11.83749084 74.21178058 7.967178 77.61835905 4 81 C2.50919922 82.27230469 2.50919922 82.27230469 0.98828125 83.5703125 C-5.23318507 88.86317392 -11.50696397 94.08250524 -17.85546875 99.22265625 C-20.03470231 100.97255709 -20.03470231 100.97255709 -22 103 C-25.02183322 102.87705604 -26.12635917 101.8868333 -28.39453125 99.85546875 C-29.19246094 98.97503906 -29.99039062 98.09460938 -30.8125 97.1875 C-32.02873047 95.87845703 -32.02873047 95.87845703 -33.26953125 94.54296875 C-35 92 -35 92 -34.78320312 90.04541016 C-33.36731082 86.34767147 -30.45161265 83.93960781 -27.6875 81.1875 C-27.10548828 80.57712891 -26.52347656 79.96675781 -25.92382812 79.33789062 C-25.35470703 78.76619141 -24.78558594 78.19449219 -24.19921875 77.60546875 C-23.68190186 77.08106201 -23.16458496 76.55665527 -22.6315918 76.01635742 C-21 75 -21 75 -18.90942383 75.23950195 C-16.70524676 76.11739629 -15.54516249 77.22306314 -14 79 C-9.87582937 77.3383196 -6.93445961 74.37661982 -3.75 71.375 C-3.19570313 70.859375 -2.64140625 70.34375 -2.0703125 69.8125 C-0.7097288 68.54574965 0.64565837 67.27342185 2 66 C1.27039063 66.23074219 0.54078125 66.46148437 -0.2109375 66.69921875 C-3.80105435 67.82057623 -7.39774552 68.91840705 -11 70 C-11.76489746 70.22977539 -12.52979492 70.45955078 -13.31787109 70.69628906 C-15.7293991 71.41374427 -18.14511614 72.11505507 -20.5625 72.8125 C-21.72241455 73.15897583 -21.72241455 73.15897583 -22.90576172 73.51245117 C-29.42040732 75.36468239 -29.42040732 75.36468239 -33 74 C-35.3125 71.25 -35.3125 71.25 -37 68 C-36.57178201 64.48017786 -35.48076192 61.23811288 -34.328125 57.89453125 C-33.99562744 56.9195166 -33.66312988 55.94450195 -33.32055664 54.93994141 C-32.96727295 53.90788574 -32.61398926 52.87583008 -32.25 51.8125 C-29.71472035 44.28914155 -27.22869002 36.76388832 -25.0625 29.125 C-24.76424316 28.10369995 -24.76424316 28.10369995 -24.45996094 27.06176758 C-23.40401219 23.23700118 -22.9711216 19.88343898 -22.88671875 15.91015625 C-22.62265102 12.89405731 -22.34661109 11.42235065 -20.41235352 9.06542969 C-18.27623909 7.2943523 -16.09487229 5.7950019 -13.75 4.3125 C-12.98558594 3.77689453 -12.22117187 3.24128906 -11.43359375 2.68945312 C-5.12938234 -1.52968664 -5.12938234 -1.52968664 0 0 Z " fill="#EEEEEE" transform="translate(513,45)"/>
<path d="M0 0 C4.51066781 2.25533391 7.11783277 3.94667972 9.1328125 8.63671875 C11.97482708 17.91242774 13.40456317 27.51316357 14.984375 37.06640625 C16.07446699 43.59092743 17.38895533 50.06354897 18.78125 56.52978516 C19.23085029 58.68124943 19.62615758 60.83429221 20 63 C20.19078125 64.01191406 20.3815625 65.02382812 20.578125 66.06640625 C19.61792006 70.93879755 16.04075232 73.5830573 12.5 76.875 C11.78457031 77.56335938 11.06914063 78.25171875 10.33203125 78.9609375 C8.56743993 80.65494516 6.79042076 82.33338493 5 84 C1.32851891 82.25391682 -0.71154294 80.30243747 -3.33984375 77.2421875 C-5.66965326 75.49894179 -7.13643425 75.73837854 -10 76 C-12.0951597 77.06049367 -12.0951597 77.06049367 -13.98828125 78.625 C-14.69404297 79.16640625 -15.39980469 79.7078125 -16.12695312 80.265625 C-16.84818359 80.83796875 -17.56941406 81.4103125 -18.3125 82 C-19.05306641 82.57234375 -19.79363281 83.1446875 -20.55664062 83.734375 C-22.37969034 85.14576833 -24.19339017 86.56766411 -26 88 C-29.75308136 86.28475527 -31.63414741 84.4264072 -34 81 C-36.46251874 72.98215624 -37.03904903 63.1199657 -35 55 C-30.03125157 46.35069718 -19.86384242 40.04315619 -11 36 C-11.495 30.555 -11.495 30.555 -12 25 C-17.17851115 27.07140446 -17.55899217 27.51784219 -19.92382812 32.10595703 C-21.73334326 35.29067082 -24.23119348 37.80300027 -26.75 40.4375 C-27.25660156 40.97826172 -27.76320313 41.51902344 -28.28515625 42.07617188 C-29.51740699 43.38979766 -30.75784419 44.6957364 -32 46 C-34.49361571 44.79618552 -36.68143083 43.54571278 -39 42 C-39.37109375 39.390625 -39.37109375 39.390625 -39.4375 36.25 C-39.6997112 31.00471948 -39.6997112 31.00471948 -42.125 26.5 C-44 24 -44 24 -43.76489258 22.04150391 C-42.48965406 18.63788294 -40.03222906 16.09282308 -37.6875 13.375 C-37.20087891 12.78976563 -36.71425781 12.20453125 -36.21289062 11.6015625 C-33.72690463 8.68395848 -31.69811682 6.35275532 -28 5 C-26.02 6.98 -24.04 8.96 -22 11 C-18.5009283 9.71475222 -15.61200116 8.19878156 -12.5625 6.0625 C-3.61734069 0 -3.61734069 0 0 0 Z M-13 52 C-13.48340432 54.7386225 -13.48340432 54.7386225 -13.25 57.6875 C-13.21390625 58.68136719 -13.1778125 59.67523438 -13.140625 60.69921875 C-13.09421875 61.45847656 -13.0478125 62.21773437 -13 63 C-10.50638429 61.79618552 -8.31856917 60.54571278 -6 59 C-6.33 55.7 -6.66 52.4 -7 49 C-9.90436293 49 -10.95077362 49.98887907 -13 52 Z " fill="#EAEAEA" transform="translate(755,66)"/>
<path d="M0 0 C3.72311557 0.50312373 5.62394455 1.05697436 8 4 C8.52075195 5.875 8.52075195 5.875 8.73828125 8 C8.83254395 8.79462646 8.92680664 9.58925293 9.02392578 10.40795898 C9.16677002 11.69101929 9.16677002 11.69101929 9.3125 13 C11.39025693 28.65102211 16.47297304 42.72510778 23.19189453 56.97241211 C26.82492145 64.93462869 26.82492145 64.93462869 25 70 C23.69883406 72.5529295 22.2100158 74.92745249 20.625 77.3125 C20.22539062 77.94478516 19.82578125 78.57707031 19.4140625 79.22851562 C16.38921654 83.87026115 16.38921654 83.87026115 13 85 C7.2456945 82.18745966 5.49457041 78.80150776 3.3125 73.125 C2.74748357 71.73120662 2.18109654 70.337968 1.61328125 68.9453125 C1.34725098 68.27661133 1.0812207 67.60791016 0.80712891 66.91894531 C0.05609831 65.13337347 -0.82133643 63.40243485 -1.70703125 61.6796875 C-3 59 -3 59 -3 56 C-3.66 56 -4.32 56 -5 56 C-5.11859375 56.87487061 -5.2371875 57.74974121 -5.359375 58.65112305 C-5.98458146 61.91939933 -6.91360278 64.54474081 -8.25 67.58203125 C-8.6934375 68.59587891 -9.136875 69.60972656 -9.59375 70.65429688 C-10.0578125 71.69650391 -10.521875 72.73871094 -11 73.8125 C-11.4640625 74.87404297 -11.928125 75.93558594 -12.40625 77.02929688 C-15.84778571 84.84778571 -15.84778571 84.84778571 -17 86 C-19.85487629 86.30863527 -21.53526576 86.25147437 -24.08129883 84.8737793 C-26.70157558 82.31485017 -26.83542506 80.3684606 -27.38671875 76.76953125 C-27.70431152 74.86880859 -27.70431152 74.86880859 -28.02832031 72.9296875 C-28.13519165 72.25776367 -28.24206299 71.58583984 -28.35217285 70.89355469 C-30.50091706 57.55835583 -33.91726893 45.3816673 -39.046875 32.84375 C-39.38380371 32.00207275 -39.72073242 31.16039551 -40.06787109 30.29321289 C-40.87200038 28.31490322 -41.72454103 26.3563983 -42.5859375 24.40234375 C-43.22135967 19.18109174 -40.78531928 16.24518794 -37.875 12.0625 C-37.37484375 11.28326172 -36.8746875 10.50402344 -36.359375 9.70117188 C-33.54367528 5.49604964 -33.54367528 5.49604964 -32 4 C-27.23955672 4 -26.32585612 4.74683283 -23 8 C-21.54614258 10.69799805 -21.54614258 10.69799805 -20.39453125 13.76171875 C-19.96849609 14.88126953 -19.54246094 16.00082031 -19.10351562 17.15429688 C-18.67748047 18.32025391 -18.25144531 19.48621094 -17.8125 20.6875 C-17.15604492 22.40743164 -17.15604492 22.40743164 -16.48632812 24.16210938 C-14.14945319 30.39496511 -12.24661776 36.46048003 -11 43 C-9.95295193 39.70509349 -10.06516872 38.73063597 -10.9375 35.125 C-14.27264449 20.2020542 -14.27264449 20.2020542 -10.81347656 13.80615234 C-7.57631497 8.89959774 -3.86109148 4.42416732 0 0 Z " fill="#EAEAEA" transform="translate(280,70)"/>
<path d="M0 0 C4.92314194 1.23078549 7.26518192 2.68740225 10 7 C10 7.99 10 8.98 10 10 C10.90766113 9.84853516 11.81532227 9.69707031 12.75048828 9.54101562 C16.13805643 8.97808087 19.52628284 8.41948926 22.91503906 7.86376953 C24.37788856 7.62297791 25.84045983 7.38048933 27.30273438 7.13623047 C29.41204014 6.78420056 31.52229139 6.43840913 33.6328125 6.09375 C34.90012207 5.88427734 36.16743164 5.67480469 37.47314453 5.45898438 C46.05443625 4.34221652 46.05443625 4.34221652 49.875 7 C50.57625 7.66 51.2775 8.32 52 9 C51.53790861 15.02685149 48.84532137 19.53037766 45.9375 24.6875 C45.43871338 25.58162598 44.93992676 26.47575195 44.42602539 27.39697266 C40.3663991 34.56930518 35.88190338 41.23610534 30.671875 47.62988281 C23.67705611 55.66043423 23.67705611 55.66043423 21.875 65.6875 C22.23098265 67.46225408 22.6056634 69.23337204 23 71 C23.76205973 80.25761454 21.89807959 88.99542002 20 98 C17.47275921 98.72436838 16.07954406 99.01358069 13.4375 98.5625 C8.19506876 95.20196716 7.70682192 87.82747608 6.4375 82.125 C6.20933594 81.01382813 5.98117188 79.90265625 5.74609375 78.7578125 C5.21358792 75.88164931 5.21358792 75.88164931 3 74 C3.03996094 73.07445313 3.07992187 72.14890625 3.12109375 71.1953125 C3.29405708 65.17743532 0.9005993 59.52440606 -0.9375 53.875 C-1.67786466 51.56056126 -2.41622417 49.24547991 -3.15234375 46.9296875 C-3.48226318 45.91116699 -3.81218262 44.89264648 -4.15209961 43.84326172 C-4.92899815 41.23809029 -5.51723662 38.6734363 -6 36 C-6.58007812 35.91363281 -7.16015625 35.82726562 -7.7578125 35.73828125 C-13.58831944 34.6895597 -16.75654564 33.13464784 -21 29 C-20.43593467 24.16383332 -18.3528073 20.72455137 -15.8125 16.6875 C-15.25079102 15.71973633 -15.25079102 15.71973633 -14.67773438 14.73242188 C-13.51953125 12.88671875 -13.51953125 12.88671875 -11 10 C-7.69921875 9.58203125 -7.69921875 9.58203125 -5 10 C-4.731875 9.0925 -4.46375 8.185 -4.1875 7.25 C-3.10423706 4.28528037 -2.01640543 2.3830246 0 0 Z M20.3125 31.4375 C18.889375 31.623125 17.46625 31.80875 16 32 C16.66 35.96 17.32 39.92 18 44 C18.99 44 19.98 44 21 44 C22.93339429 41.31377838 22.93339429 41.31377838 24.6875 38 C25.31011719 36.88625 25.93273437 35.7725 26.57421875 34.625 C27.04472656 33.75875 27.51523438 32.8925 28 32 C24.90521121 30.96840374 23.47368607 31.02517138 20.3125 31.4375 Z " fill="#E7E7E7" transform="translate(196,47)"/>
<path d="M0 0 C3.72100722 0.64155297 3.72100722 0.64155297 5.20703125 2.55078125 C8.01432186 4.81985492 10.35345402 4.16053076 13.875 3.875 C14.53685303 3.822229 15.19870605 3.76945801 15.88061523 3.71508789 C21.4198017 3.20659626 26.72519713 2.06619537 32.09765625 0.62109375 C35.91731822 -0.19630363 39.39492175 -0.92473644 42.8984375 1.09375 C44.265625 2.39583333 45.6328125 3.69791667 47 5 C45.34727245 10.21804548 42.13830663 14.26716038 38.9375 18.625 C38.35693848 19.42172119 37.77637695 20.21844238 37.17822266 21.03930664 C25.68890211 36.69949486 25.68890211 36.69949486 21.2421875 40.50390625 C19.78655445 41.95317103 19.78655445 41.95317103 19.890625 44.15625 C20.00921875 44.9296875 20.1278125 45.703125 20.25 46.5 C20.35828125 47.2734375 20.4665625 48.046875 20.578125 48.84375 C20.98539994 51.16984214 20.98539994 51.16984214 22 54 C22.43344727 53.54036865 22.86689453 53.0807373 23.31347656 52.60717773 C25.2792127 50.53769149 27.26410121 48.48763766 29.25 46.4375 C29.93191406 45.71369141 30.61382812 44.98988281 31.31640625 44.24414062 C31.98027344 43.56416016 32.64414062 42.88417969 33.328125 42.18359375 C33.9355957 41.54993896 34.54306641 40.91628418 35.16894531 40.26342773 C37 39 37 39 39.08886719 39.20336914 C41.36803156 40.15340917 43.09779476 41.43747427 45 43 C39.87786992 57.46248494 27.45338939 71.25968149 15 80 C11.1698471 80 8.71200625 79.36428227 5.3125 77.625 C0.38242321 72.02869662 -1.35050029 64.30687171 -2 57 C-2.78375 56.71125 -3.5675 56.4225 -4.375 56.125 C-7 55 -7 55 -9 53 C-8.69347955 50.0574037 -8.32728846 47.65457692 -7 45 C-7.41820425 36.49651356 -9.22998857 27.15501714 -14 20 C-13.79685169 15.42540112 -11.77144956 13.2303236 -8.6875 10 C-5.63135915 6.76705761 -2.73799137 3.50863883 0 0 Z " fill="#E6E6E6" transform="translate(432,74)"/>
<path d="M0 0 C3.8360821 1.72623694 6.71103086 4.06128618 8.25219727 8.0925293 C8.85799455 10.47810271 9.33811652 12.86015799 9.78125 15.28125 C9.9620813 16.17880005 10.1429126 17.0763501 10.32922363 18.00109863 C10.90420029 20.87250547 11.45306179 23.74813403 12 26.625 C12.73289053 30.36591694 13.47591178 34.10479764 14.21875 37.84375 C14.49041992 39.22675293 14.49041992 39.22675293 14.76757812 40.63769531 C16.73227886 50.53358269 19.09011988 60.32951651 21.5 70.125 C22.23822998 69.3196582 22.97645996 68.51431641 23.73706055 67.68457031 C25.0943531 66.20388752 26.45191004 64.72344465 27.81176758 63.24511719 C30.19431086 60.6347706 32.44103841 57.99796966 34.5 55.125 C37.39340092 56.42204179 39.5409551 57.60543517 41.5 60.125 C42.30064423 65.38523256 41.72649268 70.30154185 38.734375 74.75 C37.20862314 76.41445657 35.63799807 78.03859051 34.03125 79.625 C31.4511351 82.17326163 29.24476493 84.84202333 27 87.6875 C23.40022984 92.1446585 19.55496977 96.18150234 15.453125 100.17578125 C13.27105779 102.35348432 11.33669959 104.64944838 9.5 107.125 C6.02608152 105.63617779 3.789266 104.15918588 1.5 101.125 C0.56006326 97.50923648 0.18857822 93.8302298 -0.25 90.125 C-1.80595179 78.59764376 -4.05760112 67.33785496 -6.625 56 C-6.88911682 54.82824219 -6.88911682 54.82824219 -7.15856934 53.6328125 C-8.25188852 48.79195269 -9.35879246 43.95480874 -10.5 39.125 C-10.64757751 38.40830139 -10.79515503 37.69160278 -10.94720459 36.95318604 C-12.03762734 31.94909514 -12.03762734 31.94909514 -15.625 28.625 C-16.57375 28.13 -17.5225 27.635 -18.5 27.125 C-18.03768087 21.4438091 -15.76485309 17.72855153 -12.75 13.0625 C-12.10417969 12.02125977 -12.10417969 12.02125977 -11.4453125 10.95898438 C-4.64036142 0.23201807 -4.64036142 0.23201807 0 0 Z " fill="#E7E7E7" transform="translate(784.5,39.875)"/>
<path d="M0 0 C3.3689625 1.64128942 5.06017408 3.24378923 7.4375 6.1875 C8.61731964 9.6362334 9.16194885 13.15921986 9.75 16.75 C10.15315988 18.97345713 10.56101813 21.19606561 10.97265625 23.41796875 C11.19711426 24.6404834 11.42157227 25.86299805 11.65283203 27.12255859 C12.98331244 34.15559507 14.57646358 41.13534613 16.14047241 48.11935425 C16.68288891 50.54190585 17.22121416 52.96534014 17.7590332 55.38891602 C18.09428376 56.89215233 18.42980193 58.39532899 18.765625 59.8984375 C18.91958237 60.59113235 19.07353973 61.28382721 19.23216248 61.99751282 C19.85898364 64.78366445 20.53354814 67.47564442 21.4375 70.1875 C23.0438702 68.4394799 24.64763297 66.68918356 26.25 64.9375 C26.70181641 64.44636719 27.15363281 63.95523438 27.61914062 63.44921875 C30.04568027 60.79242352 32.34099971 58.11284924 34.4375 55.1875 C37.33135511 56.48474539 39.47241494 57.67285725 41.4375 60.1875 C42.3688567 65.72437284 41.59664269 70.52466912 38.37890625 75.140625 C35.82039081 77.92890058 33.1652543 80.5654411 30.4375 83.1875 C29.23249791 84.52611629 28.04282821 85.87883229 26.875 87.25 C24.22269369 90.30360088 21.52588744 93.31302229 18.8125 96.3125 C15.59900707 99.8720614 12.46865299 103.47189311 9.4375 107.1875 C5.9733939 105.7028831 3.73132124 104.20328091 1.4375 101.1875 C0.53891549 97.73909995 0.21828005 94.22279671 -0.1875 90.6875 C-1.8279807 78.60921591 -4.16207575 66.71848883 -6.78094482 54.81616211 C-7.21786055 52.81732444 -7.64567743 50.81647571 -8.06427002 48.8137207 C-8.66176043 45.96621234 -9.29124321 43.12763184 -9.9296875 40.2890625 C-10.19232391 38.99997482 -10.19232391 38.99997482 -10.46026611 37.68484497 C-11.4231553 33.5776553 -12.13197853 31.03660389 -15.72705078 28.61865234 C-16.66274902 28.14637207 -17.59844727 27.6740918 -18.5625 27.1875 C-17.97562765 22.25199972 -15.78528967 18.49857933 -13.375 14.25 C-13.00052734 13.55970703 -12.62605469 12.86941406 -12.24023438 12.15820312 C-5.63817498 0.41254939 -5.63817498 0.41254939 0 0 Z " fill="#E6E6E6" transform="translate(314.5625,39.8125)"/>
<path d="M0 0 C6.5054871 1.38912093 10.02714471 6.00555335 14 11 C12.61219205 14.89006773 10.7847773 17.96558708 8.375 21.3125 C7.42753906 22.63701172 7.42753906 22.63701172 6.4609375 23.98828125 C5.73777344 24.98408203 5.73777344 24.98408203 5 26 C5.59167969 25.61585937 6.18335938 25.23171875 6.79296875 24.8359375 C13.284241 20.87552017 13.284241 20.87552017 16.875 21.5 C17.926875 22.2425 17.926875 22.2425 19 23 C19.53496094 23.37374756 20.06992187 23.74749512 20.62109375 24.13256836 C22.74148046 27.00417565 22.30966398 29.95932777 22.1875 33.37890625 C22.17614014 34.1056102 22.16478027 34.83231415 22.15307617 35.58103943 C22.10426052 38.68268077 22.02065443 41.78312322 21.93847656 44.8840332 C21.74231672 52.98078868 21.61770862 60.27208882 24.38330078 68.01196289 C25.31491035 71.01516823 24.9946245 73.04955927 24 76 C22.2578125 79.0703125 22.2578125 79.0703125 20.125 82.125 C19.42632813 83.13820313 18.72765625 84.15140625 18.0078125 85.1953125 C16.36700905 87.48732976 14.70658217 89.75675677 13 92 C9.59107693 90.80227027 7.23077319 89.87152719 5 87 C4.11427096 84.49092812 3.41515484 82.13964242 2.8125 79.5625 C2.55098145 78.46240601 2.55098145 78.46240601 2.28417969 77.34008789 C0.3467633 68.28522547 0.65731416 59.20492231 1 50 C0.5265918 50.43675049 0.05318359 50.87350098 -0.43457031 51.32348633 C-1.05944336 51.88318115 -1.68431641 52.44287598 -2.328125 53.01953125 C-3.2547998 53.86028198 -3.2547998 53.86028198 -4.20019531 54.71801758 C-6 56 -6 56 -8.75 55.6875 C-9.4925 55.460625 -10.235 55.23375 -11 55 C-12.8354799 56.33378575 -12.8354799 56.33378575 -14 58 C-14.99 57.505 -14.99 57.505 -16 57 C-15.34 55.68 -14.68 54.36 -14 53 C-14.66 52.34 -15.32 51.68 -16 51 C-26.36462224 52.24798513 -38.95970542 66.71573482 -46 74 C-46.90714933 71.73212668 -47.81382977 69.46407679 -48.71875 67.1953125 C-49.6493277 64.87454251 -50.58687318 62.55732023 -51.53125 60.2421875 C-51.79470215 59.59258057 -52.0581543 58.94297363 -52.32958984 58.27368164 C-53.09518595 56.38601022 -53.86393574 54.49961879 -54.6328125 52.61328125 C-55.96503449 49.09240886 -57.02132165 45.63043064 -58 42 C-56.4585058 40.4585058 -55.01556186 40.79353685 -52.875 40.75 C-45.704593 40.84090849 -40.80160391 44.07276043 -35 48 C-24.93672295 38.29439456 -24.93672295 38.29439456 -21.75 25.125 C-21.74590886 22.72922761 -21.83839482 20.39299973 -22 18 C-21.34 18 -20.68 18 -20 18 C-18.62476533 31.68443392 -18.62476533 31.68443392 -21.828125 37.078125 C-24.11087449 39.54228505 -26.48324339 41.77784701 -29 44 C-30.0470439 45.18569355 -31.07364489 46.39036009 -32.0625 47.625 C-32.701875 48.40875 -33.34125 49.1925 -34 50 C-38.19878923 49.32819372 -41.3917152 47.13824284 -45 45 C-47.28705831 43.85647084 -48.59264762 43.89665561 -51.125 43.9375 C-52.40375 43.958125 -53.6825 43.97875 -55 44 C-54.72736328 44.67579102 -54.45472656 45.35158203 -54.17382812 46.04785156 C-52.94210156 49.11242936 -51.7209541 52.18111537 -50.5 55.25 C-50.07074219 56.31347656 -49.64148438 57.37695312 -49.19921875 58.47265625 C-48.79316406 59.49746094 -48.38710938 60.52226563 -47.96875 61.578125 C-47.59169922 62.52075195 -47.21464844 63.46337891 -46.82617188 64.43457031 C-46 67 -46 67 -46 71 C-45.34 71 -44.68 71 -44 71 C-43.76925781 70.43667969 -43.53851562 69.87335938 -43.30078125 69.29296875 C-39.21473836 62.09024449 -30.79852848 56.62146474 -24.125 51.8125 C-23.07570313 51.05582031 -22.02640625 50.29914063 -20.9453125 49.51953125 C-18 48 -18 48 -15.1171875 48.26171875 C-14.41851563 48.50535156 -13.71984375 48.74898437 -13 49 C-11.15553646 46.23642636 -9.32641757 43.46302645 -7.5 40.6875 C-6.97535156 39.90181641 -6.45070313 39.11613281 -5.91015625 38.30664062 C-5.41386719 37.54931641 -4.91757812 36.79199219 -4.40625 36.01171875 C-3.94541016 35.31522217 -3.48457031 34.61872559 -3.00976562 33.90112305 C-1.7654597 31.91719706 -1.7654597 31.91719706 -2 29 C-3.36125 28.1028125 -3.36125 28.1028125 -4.75 27.1875 C-8.43780315 24.7053248 -9.77811163 22.76011877 -12 19 C-10.70369101 16.30326081 -9.2862657 13.81034386 -7.6171875 11.328125 C-7.17246094 10.66425781 -6.72773437 10.00039063 -6.26953125 9.31640625 C-5.80933594 8.63449219 -5.34914063 7.95257813 -4.875 7.25 C-4.40707031 6.55261719 -3.93914063 5.85523438 -3.45703125 5.13671875 C-2.30677705 3.42307474 -1.15366914 1.71134684 0 0 Z " fill="#E7E7E7" transform="translate(687,49)"/>
<path d="M0 0 C6.5054871 1.38912093 10.02714471 6.00555335 14 11 C12.61219205 14.89006773 10.7847773 17.96558708 8.375 21.3125 C7.42753906 22.63701172 7.42753906 22.63701172 6.4609375 23.98828125 C5.73777344 24.98408203 5.73777344 24.98408203 5 26 C5.59167969 25.61585937 6.18335938 25.23171875 6.79296875 24.8359375 C13.32761578 20.8490566 13.32761578 20.8490566 17.0625 21.6875 C17.701875 22.120625 18.34125 22.55375 19 23 C19 23.99 19 24.98 19 26 C17.96939453 25.40058594 17.96939453 25.40058594 16.91796875 24.7890625 C13.92081857 23.67283234 13.92081857 23.67283234 10.80078125 25.2109375 C9.6196913 25.90187175 8.45742907 26.62566627 7.3125 27.375 C6.70180664 27.76768066 6.09111328 28.16036133 5.46191406 28.56494141 C-1.91117594 33.74618826 -5.78026734 41.24057425 -10 49 C-10.66 49.99 -11.32 50.98 -12 52 C-9.29409604 52.95367452 -9.29409604 52.95367452 -6 53 C-2.84151217 50.67348492 -2.84151217 50.67348492 0 48 C2.375 47.1875 2.375 47.1875 4 47 C4 47.99 4 48.98 4 50 C3.46375 50.061875 2.9275 50.12375 2.375 50.1875 C-0.30928325 50.93376352 -0.30928325 50.93376352 -2.9375 53.625 C-4.4534375 54.800625 -4.4534375 54.800625 -6 56 C-8.6875 55.625 -8.6875 55.625 -11 55 C-12.8354799 56.33378575 -12.8354799 56.33378575 -14 58 C-14.99 57.505 -14.99 57.505 -16 57 C-15.34 55.68 -14.68 54.36 -14 53 C-14.66 52.34 -15.32 51.68 -16 51 C-26.36462224 52.24798513 -38.95970542 66.71573482 -46 74 C-46.90714933 71.73212668 -47.81382977 69.46407679 -48.71875 67.1953125 C-49.6493277 64.87454251 -50.58687318 62.55732023 -51.53125 60.2421875 C-51.79470215 59.59258057 -52.0581543 58.94297363 -52.32958984 58.27368164 C-53.09518595 56.38601022 -53.86393574 54.49961879 -54.6328125 52.61328125 C-55.96503449 49.09240886 -57.02132165 45.63043064 -58 42 C-56.4585058 40.4585058 -55.01556186 40.79353685 -52.875 40.75 C-45.704593 40.84090849 -40.80160391 44.07276043 -35 48 C-24.93672295 38.29439456 -24.93672295 38.29439456 -21.75 25.125 C-21.74590886 22.72922761 -21.83839482 20.39299973 -22 18 C-21.34 18 -20.68 18 -20 18 C-18.62476533 31.68443392 -18.62476533 31.68443392 -21.828125 37.078125 C-24.11087449 39.54228505 -26.48324339 41.77784701 -29 44 C-30.0470439 45.18569355 -31.07364489 46.39036009 -32.0625 47.625 C-32.701875 48.40875 -33.34125 49.1925 -34 50 C-38.19878923 49.32819372 -41.3917152 47.13824284 -45 45 C-47.28705831 43.85647084 -48.59264762 43.89665561 -51.125 43.9375 C-52.40375 43.958125 -53.6825 43.97875 -55 44 C-54.72736328 44.67579102 -54.45472656 45.35158203 -54.17382812 46.04785156 C-52.94210156 49.11242936 -51.7209541 52.18111537 -50.5 55.25 C-50.07074219 56.31347656 -49.64148438 57.37695312 -49.19921875 58.47265625 C-48.79316406 59.49746094 -48.38710938 60.52226563 -47.96875 61.578125 C-47.59169922 62.52075195 -47.21464844 63.46337891 -46.82617188 64.43457031 C-46 67 -46 67 -46 71 C-45.34 71 -44.68 71 -44 71 C-43.76925781 70.43667969 -43.53851562 69.87335938 -43.30078125 69.29296875 C-39.21473836 62.09024449 -30.79852848 56.62146474 -24.125 51.8125 C-23.07570313 51.05582031 -22.02640625 50.29914063 -20.9453125 49.51953125 C-18 48 -18 48 -15.1171875 48.26171875 C-14.41851563 48.50535156 -13.71984375 48.74898437 -13 49 C-11.15553646 46.23642636 -9.32641757 43.46302645 -7.5 40.6875 C-6.97535156 39.90181641 -6.45070313 39.11613281 -5.91015625 38.30664062 C-5.41386719 37.54931641 -4.91757812 36.79199219 -4.40625 36.01171875 C-3.94541016 35.31522217 -3.48457031 34.61872559 -3.00976562 33.90112305 C-1.7654597 31.91719706 -1.7654597 31.91719706 -2 29 C-3.36125 28.1028125 -3.36125 28.1028125 -4.75 27.1875 C-8.43780315 24.7053248 -9.77811163 22.76011877 -12 19 C-10.70369101 16.30326081 -9.2862657 13.81034386 -7.6171875 11.328125 C-7.17246094 10.66425781 -6.72773437 10.00039063 -6.26953125 9.31640625 C-5.80933594 8.63449219 -5.34914063 7.95257813 -4.875 7.25 C-4.40707031 6.55261719 -3.93914063 5.85523438 -3.45703125 5.13671875 C-2.30677705 3.42307474 -1.15366914 1.71134684 0 0 Z " fill="#7B7B7B" transform="translate(687,49)"/>
<path d="M0 0 C2.92578125 0.8515625 2.92578125 0.8515625 6 2 C7.1875 4.375 7.1875 4.375 8 7 C8.5775 7.66 9.155 8.32 9.75 9 C10.1625 9.66 10.575 10.32 11 11 C9.85359653 14.78756504 8.0163649 17.55371102 5.5625 20.625 C4.96566406 21.38039063 4.36882813 22.13578125 3.75390625 22.9140625 C2.24244136 24.71166217 0.6926397 26.37465179 -1 28 C-2.30157403 26.94966002 -3.59088725 25.88411722 -4.875 24.8125 C-5.59429688 24.22082031 -6.31359375 23.62914063 -7.0546875 23.01953125 C-9.41034933 20.57399477 -10.50355322 19.39875106 -11 16 C-9.58418226 12.95485575 -7.6353588 10.36558512 -5.625 7.6875 C-5.09132813 6.94693359 -4.55765625 6.20636719 -4.0078125 5.44335938 C-2.68769894 3.61641651 -1.35189715 1.80348023 0 0 Z " fill="#F7F7F7" transform="translate(688,50)"/>
<path d="M0 0 C0.66 0.33 1.32 0.66 2 1 C1.65066406 2.00160156 1.30132812 3.00320312 0.94140625 4.03515625 C0.48144487 5.37749252 0.02182781 6.7199468 -0.4375 8.0625 C-0.66759766 8.71927734 -0.89769531 9.37605469 -1.13476562 10.05273438 C-3.92040076 17.67661946 -3.92040076 17.67661946 -3.0625 25.4375 C-2.5365625 26.2109375 -2.5365625 26.2109375 -2 27 C11.5688443 23.63492661 24.79101412 19.57485819 38 15 C35.45298073 20.39215397 31.28359955 23.92818927 27 28 C26.26394531 28.70640625 25.52789062 29.4128125 24.76953125 30.140625 C24.08246094 30.77484375 23.39539063 31.4090625 22.6875 32.0625 C22.07261719 32.63097656 21.45773437 33.19945312 20.82421875 33.78515625 C19 35 19 35 15 35 C13.35 33.68 11.7 32.36 10 31 C5.71 35.29 1.42 39.58 -3 44 C-2.05125 45.27875 -1.1025 46.5575 -0.125 47.875 C0.40867187 48.59429687 0.94234375 49.31359375 1.4921875 50.0546875 C2.99873162 52.08252632 2.99873162 52.08252632 5 54 C8.79543964 53.72775327 10.71378267 51.67722549 13.375 49.125 C17.55849998 45.24032144 21.87249229 41.6345324 26.375 38.125 C26.96974121 37.66109863 27.56448242 37.19719727 28.17724609 36.71923828 C31.09757953 34.451734 34.03342378 32.20666507 37 30 C35.4164817 34.35726276 32.0206341 36.82284409 28.5625 39.6875 C27.94084961 40.21134277 27.31919922 40.73518555 26.67871094 41.27490234 C21.86422514 45.31980921 17.00111674 49.30679033 12.109375 53.2578125 C9.95895522 54.97777519 9.95895522 54.97777519 8 57 C4.97816678 56.87705604 3.87364083 55.8868333 1.60546875 53.85546875 C0.80753906 52.97503906 0.00960938 52.09460938 -0.8125 51.1875 C-2.02873047 49.87845703 -2.02873047 49.87845703 -3.26953125 48.54296875 C-5 46 -5 46 -4.78320312 44.04541016 C-3.36731082 40.34767147 -0.45161265 37.93960781 2.3125 35.1875 C2.89451172 34.57712891 3.47652344 33.96675781 4.07617188 33.33789062 C4.64529297 32.76619141 5.21441406 32.19449219 5.80078125 31.60546875 C6.31809814 31.08106201 6.83541504 30.55665527 7.3684082 30.01635742 C9 29 9 29 11.09057617 29.23950195 C13.29475324 30.11739629 14.45483751 31.22306314 16 33 C20.12417063 31.3383196 23.06554039 28.37661982 26.25 25.375 C26.80429687 24.859375 27.35859375 24.34375 27.9296875 23.8125 C29.2902712 22.54574965 30.64565837 21.27342185 32 20 C31.27039063 20.23074219 30.54078125 20.46148437 29.7890625 20.69921875 C26.19894565 21.82057623 22.60225448 22.91840705 19 24 C17.85265381 24.34466309 17.85265381 24.34466309 16.68212891 24.69628906 C14.2706009 25.41374427 11.85488386 26.11505507 9.4375 26.8125 C8.66422363 27.04348389 7.89094727 27.27446777 7.09423828 27.51245117 C0.57959268 29.36468239 0.57959268 29.36468239 -3 28 C-5.3125 25.25 -5.3125 25.25 -7 22 C-6.54981566 17.22977753 -4.55652928 12.66894299 -2.9375 8.1875 C-2.65583984 7.39923828 -2.37417969 6.61097656 -2.08398438 5.79882812 C-1.39241462 3.86477711 -0.69662722 1.93223512 0 0 Z " fill="#767676" transform="translate(483,91)"/>
<path d="M0 0 C0 0.66 0 1.32 0 2 C-1.04671875 2.05542969 -2.0934375 2.11085938 -3.171875 2.16796875 C-7.85980757 3.18687654 -9.19582097 4.68686294 -12.25 8.3125 C-13.08015625 9.27800781 -13.9103125 10.24351563 -14.765625 11.23828125 C-15.87164063 12.60533203 -15.87164063 12.60533203 -17 14 C-17.61359375 14.61230469 -18.2271875 15.22460938 -18.859375 15.85546875 C-21.18488081 20.22773824 -19.19629852 25.29448428 -17.94140625 29.8046875 C-17.49177839 31.16480757 -17.03154601 32.52145368 -16.5625 33.875 C-16.30734619 34.62023926 -16.05219238 35.36547852 -15.78930664 36.13330078 C-14.8761058 38.76169197 -13.94074479 41.38133956 -13 44 C-12.61038086 45.09054688 -12.22076172 46.18109375 -11.81933594 47.3046875 C-10.54616741 50.83613257 -9.24612784 54.356554 -7.9375 57.875 C-7.52636963 59.01050293 -7.11523926 60.14600586 -6.69165039 61.31591797 C-6.2868042 62.38471191 -5.88195801 63.45350586 -5.46484375 64.5546875 C-5.110271 65.50843262 -4.75569824 66.46217773 -4.39038086 67.44482422 C-2.73747856 70.48244941 -0.80070641 72.01860733 2 74 C3.32 72.68 4.64 71.36 6 70 C6.99 70.495 6.99 70.495 8 71 C5.75 73.5625 5.75 73.5625 3 76 C-0.11315701 76.19457231 -1.12033049 74.89411252 -3.45507812 72.83959961 C-6.2225577 69.75167224 -7.34535384 67.33333628 -8.71875 63.44140625 C-8.94397339 62.81580307 -9.16919678 62.19019989 -9.40124512 61.54563904 C-10.11419625 59.55571876 -10.80740596 57.55958451 -11.5 55.5625 C-11.96354112 54.25799993 -12.42837615 52.95395889 -12.89453125 51.65039062 C-13.81641762 49.06534845 -14.73030864 46.47771569 -15.63671875 43.88720703 C-17.02247485 39.92795756 -18.43068003 35.97691484 -19.84375 32.02734375 C-20.25818359 30.868396 -20.67261719 29.70944824 -21.09960938 28.51538086 C-21.54530273 27.27026733 -21.54530273 27.27026733 -22 26 C-23.58795313 28.38192969 -25.00009794 30.73094628 -26.3828125 33.23046875 C-26.82753906 34.03291016 -27.27226563 34.83535156 -27.73046875 35.66210938 C-28.19066406 36.49548828 -28.65085937 37.32886719 -29.125 38.1875 C-29.59292969 39.03248047 -30.06085937 39.87746094 -30.54296875 40.74804688 C-31.69646277 42.83139832 -32.84876132 44.91540169 -34 47 C-34.66 46.67 -35.32 46.34 -36 46 C-35.54109375 45.24976563 -35.0821875 44.49953125 -34.609375 43.7265625 C-27.82987076 32.41789366 -24.4412959 23.16130733 -23 10 C-22.34 10 -21.68 10 -21 10 C-20.67 11.65 -20.34 13.3 -20 15 C-19.38511719 14.24074219 -18.77023437 13.48148438 -18.13671875 12.69921875 C-16.92435547 11.20841797 -16.92435547 11.20841797 -15.6875 9.6875 C-14.88699219 8.70136719 -14.08648438 7.71523437 -13.26171875 6.69921875 C-9.03454536 1.65435379 -6.8064283 -0.18395752 0 0 Z " fill="#707070" transform="translate(629,70)"/>
<path d="M0 0 C0.66 0 1.32 0 2 0 C3.37523467 13.68443392 3.37523467 13.68443392 0.171875 19.078125 C-2.11087449 21.54228505 -4.48324339 23.77784701 -7 26 C-8.0470439 27.18569355 -9.07364489 28.39036009 -10.0625 29.625 C-10.701875 30.40875 -11.34125 31.1925 -12 32 C-16.19878923 31.32819372 -19.3917152 29.13824284 -23 27 C-25.28705831 25.85647084 -26.59264762 25.89665561 -29.125 25.9375 C-30.40375 25.958125 -31.6825 25.97875 -33 26 C-32.72736328 26.67579102 -32.45472656 27.35158203 -32.17382812 28.04785156 C-30.94210156 31.11242936 -29.7209541 34.18111537 -28.5 37.25 C-28.07074219 38.31347656 -27.64148438 39.37695312 -27.19921875 40.47265625 C-26.79316406 41.49746094 -26.38710938 42.52226563 -25.96875 43.578125 C-25.59169922 44.52075195 -25.21464844 45.46337891 -24.82617188 46.43457031 C-24 49 -24 49 -24 53 C-23.34 53 -22.68 53 -22 53 C-21.773125 52.43925781 -21.54625 51.87851563 -21.3125 51.30078125 C-16.62494068 43.08360137 -6.76873034 37.08927671 1 32 C1.33 32.66 1.66 33.32 2 34 C0.96875 34.7425 -0.0625 35.485 -1.125 36.25 C-5.30651031 39.38238586 -9.28377094 42.72773532 -13.25 46.125 C-13.85215332 46.6396582 -14.45430664 47.15431641 -15.07470703 47.68457031 C-18.16986235 50.35135131 -21.15784885 53.05935846 -24 56 C-24.90714933 53.73212668 -25.81382977 51.46407679 -26.71875 49.1953125 C-27.6493277 46.87454251 -28.58687318 44.55732023 -29.53125 42.2421875 C-29.79470215 41.59258057 -30.0581543 40.94297363 -30.32958984 40.27368164 C-31.09518595 38.38601022 -31.86393574 36.49961879 -32.6328125 34.61328125 C-33.96503449 31.09240886 -35.02132165 27.63043064 -36 24 C-34.4585058 22.4585058 -33.01556186 22.79353685 -30.875 22.75 C-23.704593 22.84090849 -18.80160391 26.07276043 -13 30 C-2.93672295 20.29439456 -2.93672295 20.29439456 0.25 7.125 C0.25409114 4.72922761 0.16160518 2.39299973 0 0 Z " fill="#6F6F6F" transform="translate(665,67)"/>
<path d="M0 0 C2.6274073 0.35505504 4.56138204 0.70081027 6.76953125 2.20703125 C8.47257021 4.68860231 8.51201149 6.70419534 8.6875 9.6875 C8.78611328 11.17830078 8.78611328 11.17830078 8.88671875 12.69921875 C8.92410156 13.45847656 8.96148437 14.21773437 9 15 C8.34 15 7.68 15 7 15 C6.90203125 14.22914062 6.8040625 13.45828125 6.703125 12.6640625 C6.55359375 11.66117188 6.4040625 10.65828125 6.25 9.625 C6.11078125 8.62726563 5.9715625 7.62953125 5.828125 6.6015625 C5.25613111 3.85438953 5.25613111 3.85438953 2.921875 2.6484375 C2.28765625 2.43445313 1.6534375 2.22046875 1 2 C-6.65312018 10.39052508 -6.65312018 10.39052508 -10.578125 20.7265625 C-10.23508956 25.27682674 -9.3430337 29.53536171 -8.3046875 33.96875 C-6.70790162 41.16439268 -7.56131352 45.44944435 -11 52 C-13.18994248 48.71508627 -13.35277339 47.16904361 -13.625 43.3125 C-13.69976562 42.31863281 -13.77453125 41.32476562 -13.8515625 40.30078125 C-13.92503906 39.16189453 -13.92503906 39.16189453 -14 38 C-13.34 38 -12.68 38 -12 38 C-11.67 39.65 -11.34 41.3 -11 43 C-9.95295193 39.70509349 -10.06516872 38.73063597 -10.9375 35.125 C-14.27264449 20.2020542 -14.27264449 20.2020542 -10.81347656 13.80615234 C-7.57631497 8.89959774 -3.86109148 4.42416732 0 0 Z " fill="#7B7B7B" transform="translate(280,70)"/>
<path d="M0 0 C2.5 1 2.5 1 4.875 2.9375 C8.08962863 5.46327964 10.5535395 6.07142106 14.5 7 C14.5 7.33 14.5 7.66 14.5 8 C8.01537118 9.02388876 3.66122028 5.42721347 -1.5 2 C-3.62546902 3.9578264 -5.75039334 5.91623817 -7.875 7.875 C-8.47828125 8.43058594 -9.0815625 8.98617187 -9.703125 9.55859375 C-10.28320312 10.09355469 -10.86328125 10.62851563 -11.4609375 11.1796875 C-11.99509277 11.67194824 -12.52924805 12.16420898 -13.07958984 12.67138672 C-18.33927503 17.59115413 -17.73211903 23.45032478 -18.0625 30.3125 C-18.10568359 31.14845703 -18.14886719 31.98441406 -18.19335938 32.84570312 C-18.29885307 34.89696935 -18.39987315 36.9484648 -18.5 39 C-19.16 39 -19.82 39 -20.5 39 C-20.83 36.03 -21.16 33.06 -21.5 30 C-23.48 30.99 -23.48 30.99 -25.5 32 C-24.96375 31.278125 -24.4275 30.55625 -23.875 29.8125 C-22.14088949 27.06293369 -22.14088949 27.06293369 -23.3125 24.1875 C-23.704375 23.465625 -24.09625 22.74375 -24.5 22 C-25.82 22 -27.14 22 -28.5 22 C-28.5 21.34 -28.5 20.68 -28.5 20 C-26.75 19.3125 -26.75 19.3125 -24.5 19 C-22.25 20.4375 -22.25 20.4375 -20.5 22 C-20.27957031 20.96230469 -20.05914063 19.92460938 -19.83203125 18.85546875 C-18.62521337 14.64590997 -16.36791791 12.32937815 -13.1875 9.3125 C-12.24261719 8.40113281 -11.29773438 7.48976563 -10.32421875 6.55078125 C-3.0712098 0 -3.0712098 0 0 0 Z " fill="#7B7B7B" transform="translate(570.5,64)"/>
<path d="M0 0 C2.83780089 2.46830912 4.14893221 5.06988251 5.69921875 8.47265625 C6.18583984 9.53677734 6.67246094 10.60089844 7.17382812 11.69726562 C7.67333984 12.80779297 8.17285156 13.91832031 8.6875 15.0625 C9.19861328 16.17689453 9.70972656 17.29128906 10.23632812 18.43945312 C14 26.72556116 14 26.72556116 14 29 C16.64 29.33 19.28 29.66 22 30 C21.34 30.99 20.68 31.98 20 33 C15.15402895 31.38467632 12.30666771 29.41749983 9.83691406 24.84814453 C8.58908612 22.2317804 7.40936046 19.59421037 6.25 16.9375 C5.83878906 16.02677734 5.42757813 15.11605469 5.00390625 14.17773438 C2 7.40647062 2 7.40647062 2 4 C1.34 4 0.68 4 0 4 C-0.0825 4.804375 -0.165 5.60875 -0.25 6.4375 C-1.20196675 10.95934205 -3.01580179 14.84702701 -5 19 C-5.66 18.67 -6.32 18.34 -7 18 C-6.74605469 17.45472656 -6.49210937 16.90945312 -6.23046875 16.34765625 C-3.78670157 10.99333489 -1.7529444 5.61739002 0 0 Z " fill="#7C7C7C" transform="translate(275,122)"/>
<path d="M0 0 C0.66 0.33 1.32 0.66 2 1 C1.31292969 2.02480469 0.62585938 3.04960938 -0.08203125 4.10546875 C-0.99224954 5.46610433 -1.90240233 6.82678373 -2.8125 8.1875 C-3.26431641 8.86103516 -3.71613281 9.53457031 -4.18164062 10.22851562 C-6.54770752 13.76898069 -8.85026766 17.32188654 -11 21 C-8.29409604 21.95367452 -8.29409604 21.95367452 -5 22 C-1.84151217 19.67348492 -1.84151217 19.67348492 1 17 C3.375 16.1875 3.375 16.1875 5 16 C5 16.99 5 17.98 5 19 C4.46375 19.061875 3.9275 19.12375 3.375 19.1875 C0.69071675 19.93376352 0.69071675 19.93376352 -1.9375 22.625 C-2.948125 23.40875 -3.95875 24.1925 -5 25 C-7.6875 24.625 -7.6875 24.625 -10 24 C-11.8354799 25.33378575 -11.8354799 25.33378575 -13 27 C-13.66 26.67 -14.32 26.34 -15 26 C-14.34 24.68 -13.68 23.36 -13 22 C-13.66 21.34 -14.32 20.68 -15 20 C-16.32 20 -17.64 20 -19 20 C-19 19.34 -19 18.68 -19 18 C-15.98968256 17.06576355 -15.13349732 16.95550089 -12 18 C-11.67201416 17.49025635 -11.34402832 16.9805127 -11.00610352 16.45532227 C-9.52619201 14.15688144 -8.0443721 11.8596772 -6.5625 9.5625 C-6.04623047 8.76005859 -5.52996094 7.95761719 -4.99804688 7.13085938 C-4.50498047 6.36708984 -4.01191406 5.60332031 -3.50390625 4.81640625 C-2.82050171 3.75595093 -2.82050171 3.75595093 -2.12329102 2.67407227 C-1 1 -1 1 0 0 Z " fill="#6F6F6F" transform="translate(686,80)"/>
<path d="M0 0 C2.86001033 1.28207359 5.07039412 2.49151236 7 5 C7 6.32 7 7.64 7 9 C6.34 9 5.68 9 5 9 C4.731875 8.21625 4.46375 7.4325 4.1875 6.625 C3.15185568 3.71885077 3.15185568 3.71885077 0 2 C-0.33837891 2.82951172 -0.33837891 2.82951172 -0.68359375 3.67578125 C-2.38543409 6.6805142 -4.61943968 8.75147006 -7.0625 11.1875 C-11.78044253 16.23807445 -13.22512353 19.13373236 -13 26 C-15.41191153 23.58808847 -15.41136534 22.53242518 -15.8515625 19.2109375 C-15.98046875 18.26992187 -16.109375 17.32890625 -16.2421875 16.359375 C-16.36851562 15.37453125 -16.49484375 14.3896875 -16.625 13.375 C-16.7590625 12.38242188 -16.893125 11.38984375 -17.03125 10.3671875 C-17.36170724 7.91236225 -17.68428484 5.45675748 -18 3 C-17.34 3 -16.68 3 -16 3 C-15.01 6.96 -14.02 10.92 -13 15 C-11.3936298 13.2519799 -9.78986703 11.50168356 -8.1875 9.75 C-7.73568359 9.25886719 -7.28386719 8.76773438 -6.81835938 8.26171875 C-4.39181973 5.60492352 -2.09650029 2.92534924 0 0 Z " fill="#6F6F6F" transform="translate(819,95)"/>
<path d="M0 0 C1.80886571 4.76017293 2.20666253 8.93676791 2 14 C-1.96 15.98 -1.96 15.98 -6 18 C-6 17.34 -6 16.68 -6 16 C-3.5 14.375 -3.5 14.375 -1 13 C-1.33 9.37 -1.66 5.74 -2 2 C-7.19121057 4.07648423 -7.39043664 4.32052722 -9.6875 8.84765625 C-12.45671199 13.38883424 -16.36662171 17.14147647 -20 21 C-20.66 20.67 -21.32 20.34 -22 20 C-21.24074219 19.11957031 -20.48148438 18.23914063 -19.69921875 17.33203125 C-18.69512011 16.15901882 -17.69122458 14.98583252 -16.6875 13.8125 C-16.18798828 13.23435547 -15.68847656 12.65621094 -15.17382812 12.06054688 C-12.42648292 8.84014885 -10.16565285 5.64844219 -8 2 C-3.69230769 -1.23076923 -3.69230769 -1.23076923 0 0 Z " fill="#818181" transform="translate(745,89)"/>
<path d="M0 0 C0.66 0.33 1.32 0.66 2 1 C1.75765625 1.77714355 1.5153125 2.55428711 1.265625 3.35498047 C0.17417014 6.86075446 -0.91296783 10.36785228 -2 13.875 C-2.57234375 15.70998047 -2.57234375 15.70998047 -3.15625 17.58203125 C-3.5171875 18.74863281 -3.878125 19.91523437 -4.25 21.1171875 C-4.58515625 22.19597168 -4.9203125 23.27475586 -5.265625 24.38623047 C-6.09016345 26.86841146 -6.09016345 26.86841146 -6 29 C-0.06 27.515 -0.06 27.515 6 26 C6 26.66 6 27.32 6 28 C3.89748139 28.67184618 1.79292237 29.33730968 -0.3125 30 C-2.07013672 30.556875 -2.07013672 30.556875 -3.86328125 31.125 C-7 32 -7 32 -10 32 C-7.85757735 24.76323994 -5.61110628 17.56354323 -3.3125 10.375 C-2.99216797 9.37082031 -2.67183594 8.36664063 -2.34179688 7.33203125 C-1.56196289 4.88777547 -0.78135255 2.44377068 0 0 Z " fill="#6A6A6A" transform="translate(510,68)"/>
<path d="M0 0 C2.86001033 1.28207359 5.07039412 2.49151236 7 5 C7 6.32 7 7.64 7 9 C6.34 9 5.68 9 5 9 C4.731875 8.195625 4.46375 7.39125 4.1875 6.5625 C3.795625 5.716875 3.40375 4.87125 3 4 C2.01 3.67 1.02 3.34 0 3 C-0.61488281 3.75925781 -1.22976563 4.51851563 -1.86328125 5.30078125 C-2.67152344 6.29464844 -3.47976563 7.28851563 -4.3125 8.3125 C-5.11300781 9.29863281 -5.91351563 10.28476563 -6.73828125 11.30078125 C-9 14 -9 14 -10.75 15.6875 C-12.5481722 17.57558081 -12.65868275 19.47425237 -13 22 C-13.66 22 -14.32 22 -15 22 C-15.66 17.71 -16.32 13.42 -17 9 C-16.34 9 -15.68 9 -15 9 C-14.34 10.98 -13.68 12.96 -13 15 C-11.3936298 13.2519799 -9.78986703 11.50168356 -8.1875 9.75 C-7.73568359 9.25886719 -7.28386719 8.76773438 -6.81835938 8.26171875 C-4.39181973 5.60492352 -2.09650029 2.92534924 0 0 Z " fill="#757575" transform="translate(349,95)"/>
<path d="M0 0 C0.66 0 1.32 0 2 0 C1.32829194 3.8063457 0.27253436 7.35206816 -1 11 C0.051875 11.495 1.10375 11.99 2.1875 12.5 C6.9179788 15.76763998 7.82947383 20.80481425 9.04956055 26.12304688 C10.41732779 31.5863628 12.38558588 33.75914948 17 37 C15.515 37.495 15.515 37.495 14 38 C8.78294512 35.32458724 7.52899469 31.03076628 5.78125 25.7734375 C4.85580633 22.48811249 4.30185322 19.39584877 4 16 C2.824375 15.566875 2.824375 15.566875 1.625 15.125 C-1 14 -1 14 -3 12 C-2.61650247 7.78152721 -1.42009551 3.97626742 0 0 Z " fill="#8E8E8E" transform="translate(426,115)"/>
<path d="M0 0 C2.89767558 2.45915034 3.86769914 4.83728387 5.0859375 8.40234375 C5.45976563 9.45744141 5.83359375 10.51253906 6.21875 11.59960938 C6.98754075 13.81897323 7.75059748 16.04033192 8.5078125 18.26367188 C8.88421875 19.32005859 9.260625 20.37644531 9.6484375 21.46484375 C9.98020996 22.430271 10.31198242 23.39569824 10.65380859 24.39038086 C12.26016907 27.50434298 14.15865757 29.0026878 17 31 C18.32 29.68 19.64 28.36 21 27 C21.66 27.33 22.32 27.66 23 28 C20.75 30.5625 20.75 30.5625 18 33 C15.08212841 33.18236697 13.98159955 31.98592906 11.67578125 30.22265625 C7.47427445 25.94245799 6.07034941 19.86079667 4.1875 14.3125 C3.78080078 13.15943359 3.37410156 12.00636719 2.95507812 10.81835938 C0 2.35044643 0 2.35044643 0 0 Z " fill="#838383" transform="translate(614,113)"/>
<path d="M0 0 C2.77718237 1.09404154 5.5196326 2.2298375 8.25 3.4375 C12.40678815 5.23602203 16.68905445 6.62167047 21 8 C21 8.66 21 9.32 21 10 C18.69 10 16.38 10 14 10 C13.67 9.34 13.34 8.68 13 8 C11.25436854 7.12830231 11.25436854 7.12830231 9.1875 6.4375 C8.15689453 6.06431641 8.15689453 6.06431641 7.10546875 5.68359375 C5.08508011 5.02762341 3.06680486 4.48767306 1 4 C0.34 5.32 -0.32 6.64 -1 8 C0.98 8 2.96 8 5 8 C5 8.66 5 9.32 5 10 C-0.75 10.125 -0.75 10.125 -3 9 C-2.30058404 5.85262818 -1.23921302 2.97411124 0 0 Z " fill="#919191" transform="translate(381,92)"/>
<path d="M0 0 C0.99 0.495 0.99 0.495 2 1 C2.59328345 3.40576441 3.07967291 5.75098856 3.5 8.1875 C4.34205369 12.92983532 5.36093172 17.45723749 7 22 C9.32472205 19.14693203 10.7508258 16.45925163 12 13 C12.66 13 13.32 13 14 13 C12.7023817 18.29860806 10.84984298 22.34525646 8 27 C7.34 27 6.68 27 6 27 C4.98374776 23.81745476 3.990016 20.62829482 3 17.4375 C2.71382812 16.54224609 2.42765625 15.64699219 2.1328125 14.72460938 C0.56195273 9.61931511 -0.35173255 5.34193817 0 0 Z " fill="#7E7E7E" transform="translate(571,91)"/>
<path d="M0 0 C1.35085807 0.63040043 2.68252676 1.30251417 4 2 C5.32 2.33 6.64 2.66 8 3 C8 8.61 8 14.22 8 20 C7.34 20 6.68 20 6 20 C5.67 17.03 5.34 14.06 5 11 C3.02 11.99 3.02 11.99 1 13 C1.53625 12.278125 2.0725 11.55625 2.625 10.8125 C4.35911051 8.06293369 4.35911051 8.06293369 3.1875 5.1875 C2.5996875 4.1046875 2.5996875 4.1046875 2 3 C0.68 3 -0.64 3 -2 3 C-2 2.34 -2 1.68 -2 1 C-1.34 0.67 -0.68 0.34 0 0 Z " fill="#868686" transform="translate(544,83)"/>
<path d="M0 0 C2 1 2 1 2.7734375 3.15234375 C4.38257223 10.60242857 3.53066999 15.27421956 0 22 C-2.18994248 18.71508627 -2.35277339 17.16904361 -2.625 13.3125 C-2.69976562 12.31863281 -2.77453125 11.32476562 -2.8515625 10.30078125 C-2.90054687 9.54152344 -2.94953125 8.78226563 -3 8 C-2.34 8 -1.68 8 -1 8 C-0.67 9.65 -0.34 11.3 0 13 C0.96661363 9.87819599 0.98988909 7.47916205 0.5625 4.25 C0.46066406 3.45078125 0.35882813 2.6515625 0.25390625 1.828125 C0.17011719 1.22484375 0.08632813 0.6215625 0 0 Z " fill="#8B8B8B" transform="translate(269,100)"/>
<path d="M0 0 C0.33 0.66 0.66 1.32 1 2 C-0.03125 2.7425 -1.0625 3.485 -2.125 4.25 C-6.30651031 7.38238586 -10.28377094 10.72773532 -14.25 14.125 C-14.85215332 14.6396582 -15.45430664 15.15431641 -16.07470703 15.68457031 C-19.16986235 18.35135131 -22.15784885 21.05935846 -25 24 C-25.66 22.35 -26.32 20.7 -27 19 C-26.34 19 -25.68 19 -25 19 C-25 19.66 -25 20.32 -25 21 C-24.34 21 -23.68 21 -23 21 C-22.773125 20.43925781 -22.54625 19.87851563 -22.3125 19.30078125 C-17.62494068 11.08360137 -7.76873034 5.08927671 0 0 Z " fill="#8C8C8C" transform="translate(666,99)"/>
<path d="M0 0 C0 3 0 3 -2.1875 5.48046875 C-3.115625 6.37378906 -4.04375 7.26710938 -5 8.1875 C-5.928125 9.08855469 -6.85625 9.98960938 -7.8125 10.91796875 C-8.534375 11.60503906 -9.25625 12.29210937 -10 13 C-10.99 12.67 -11.98 12.34 -13 12 C-9.04 8.535 -9.04 8.535 -5 5 C-6.588125 5.515625 -8.17625 6.03125 -9.8125 6.5625 C-14.625 8.125 -14.625 8.125 -18 7 C-12.10825719 4.25609141 -6.20477864 1.93624298 0 0 Z " fill="#7D7D7D" transform="translate(520,106)"/>
<path d="M0 0 C0.66 0 1.32 0 2 0 C3.49740933 5.02072539 3.49740933 5.02072539 3 8 C0.34147972 10.86755716 -2.69248376 12.93683197 -6 15 C-8 13 -8 13 -8.1953125 10.3984375 C-8.17210937 9.40070313 -8.14890625 8.40296875 -8.125 7.375 C-8.10695313 6.37210937 -8.08890625 5.36921875 -8.0703125 4.3359375 C-8.04710937 3.56507812 -8.02390625 2.79421875 -8 2 C-7.34 2 -6.68 2 -6 2 C-6 5.3 -6 8.6 -6 12 C-2.84730711 10.56680314 -2.84730711 10.56680314 0 8 C0.55411674 5.15336105 0.29302268 2.93022681 0 0 Z " fill="#757575" transform="translate(748,117)"/>
<path d="M0 0 C1.32 0.33 2.64 0.66 4 1 C2.24687774 4.01069055 0.46969911 7.00644488 -1.3125 10 C-1.81201172 10.85851562 -2.31152344 11.71703125 -2.82617188 12.6015625 C-3.31279297 13.41367188 -3.79941406 14.22578125 -4.30078125 15.0625 C-4.74591064 15.81660156 -5.19104004 16.57070312 -5.6496582 17.34765625 C-6.095271 17.89292969 -6.54088379 18.43820313 -7 19 C-7.99 19 -8.98 19 -10 19 C-10.33 16.69 -10.66 14.38 -11 12 C-10.34 12 -9.68 12 -9 12 C-8.01 13.485 -8.01 13.485 -7 15 C-5.82539808 13.06730041 -4.66055528 11.12866687 -3.5 9.1875 C-2.8503125 8.10855469 -2.200625 7.02960938 -1.53125 5.91796875 C0.23233564 3.10648176 0.23233564 3.10648176 0 0 Z " fill="#727272" transform="translate(223,76)"/>
<path d="M0 0 C4.72453508 1.09027733 8.1229998 1.92424971 11 6 C10.67753095 9.88616545 8.51076518 11.97250742 5.9375 14.75 C4.83728516 15.94882813 4.83728516 15.94882813 3.71484375 17.171875 C3.14894531 17.77515625 2.58304687 18.3784375 2 19 C1.67 18.01 1.34 17.02 1 16 C1.51691406 15.54109375 2.03382813 15.0821875 2.56640625 14.609375 C3.55447266 13.68898438 3.55447266 13.68898438 4.5625 12.75 C5.22378906 12.14671875 5.88507813 11.5434375 6.56640625 10.921875 C8.22360046 9.11542895 8.22360046 9.11542895 7.9375 6.875 C6.33705649 3.67411297 3.20978021 3.1671928 0 2 C0 1.34 0 0.68 0 0 Z " fill="#7E7E7E" transform="translate(403,77)"/>
<path d="M0 0 C2.475 0.495 2.475 0.495 5 1 C6.98 8.26 8.96 15.52 11 23 C10.34 23 9.68 23 9 23 C8.18372554 20.60539412 7.37188355 18.20943474 6.5625 15.8125 C6.33240234 15.13896484 6.10230469 14.46542969 5.86523438 13.77148438 C4.66475915 10.20485509 3.62722505 6.7128839 3 3 C2.01 2.67 1.02 2.34 0 2 C0 1.34 0 0.68 0 0 Z " fill="#7D7D7D" transform="translate(187,80)"/>
<path d="M0 0 C0.66 0.33 1.32 0.66 2 1 C-1.31067517 5.24180256 -4.83683607 8.70157331 -8.9296875 12.1875 C-12.10858261 14.9705327 -15.05550248 17.97268849 -18 21 C-18 18 -18 18 -16.34765625 16.00708008 C-15.21650391 14.89949341 -15.21650391 14.89949341 -14.0625 13.76953125 C-13.25039063 12.96708984 -12.43828125 12.16464844 -11.6015625 11.33789062 C-10.74304688 10.50451172 -9.88453125 9.67113281 -9 8.8125 C-7.71222656 7.5450293 -7.71222656 7.5450293 -6.3984375 6.25195312 C-4.2721635 4.16111702 -2.13921536 2.07758017 0 0 Z " fill="#8F8F8F" transform="translate(543,98)"/>
<path d="M0 0 C0.02701408 2.10409639 0.04640223 4.20829178 0.0625 6.3125 C0.07410156 7.48425781 0.08570313 8.65601562 0.09765625 9.86328125 C0 13 0 13 -1 16 C-1.66 16 -2.32 16 -3 16 C-3 12.04 -3 8.08 -3 4 C-3.99 4 -4.98 4 -6 4 C-2.25 0 -2.25 0 0 0 Z " fill="#5B5B5B" transform="translate(587,87)"/>
<path d="M0 0 C0.66 0 1.32 0 2 0 C2.21914063 0.73605469 2.43828125 1.47210938 2.6640625 2.23046875 C4.73387928 8.59978297 6.36279233 12.28456767 12 16 C11.01 16.33 10.02 16.66 9 17 C3.67953802 14.27155796 2.50961204 9.79909322 0.69921875 4.4609375 C0 2 0 2 0 0 Z " fill="#727272" transform="translate(431,136)"/>
<path d="M0 0 C0.66 0 1.32 0 2 0 C3.34331654 1.99330842 4.67594012 3.99384866 6 6 C6.99 6.66 7.98 7.32 9 8 C10.32 6.68 11.64 5.36 13 4 C13.66 4.33 14.32 4.66 15 5 C12.75 7.5625 12.75 7.5625 10 10 C6.80261515 10.19983655 5.74714133 8.78242394 3.3125 6.6875 C1.21218689 4.24659558 0.34662861 3.11965746 0 0 Z " fill="#6F6F6F" transform="translate(622,136)"/>
<path d="M0 0 C0 0.66 0 1.32 0 2 C-2.10251861 2.67184618 -4.20707763 3.33730968 -6.3125 4 C-8.07013672 4.556875 -8.07013672 4.556875 -9.86328125 5.125 C-13 6 -13 6 -16 6 C-15.34 4.35 -14.68 2.7 -14 1 C-13.34 1.66 -12.68 2.32 -12 3 C-11.30132812 2.7834375 -10.60265625 2.566875 -9.8828125 2.34375 C-8.97273438 2.0653125 -8.06265625 1.786875 -7.125 1.5 C-6.22007812 1.2215625 -5.31515625 0.943125 -4.3828125 0.65625 C-2 0 -2 0 0 0 Z " fill="#838383" transform="translate(516,94)"/>
<path d="M0 0 C0.66 0 1.32 0 2 0 C2.02578125 0.59167969 2.0515625 1.18335937 2.078125 1.79296875 C2.45704414 7.0720013 3.10636661 10.10636661 7 14 C4.50638429 12.79618552 2.31856917 11.54571278 0 10 C-0.29296875 7.6171875 -0.29296875 7.6171875 -0.1875 4.875 C-0.16042969 3.96492188 -0.13335938 3.05484375 -0.10546875 2.1171875 C-0.07066406 1.41851562 -0.03585937 0.71984375 0 0 Z " fill="#6B6B6B" transform="translate(716,98)"/>
<path d="M0 0 C4.1424367 1.38081223 5.32203099 3.59825558 8 7 C6.87548273 9.9719385 5.77706209 12.33440687 4 15 C3.34 14.67 2.68 14.34 2 14 C2.804375 13.1646875 2.804375 13.1646875 3.625 12.3125 C4.305625 11.1678125 4.305625 11.1678125 5 10 C4.05012117 6.29547256 2.02548781 3.22236698 0 0 Z " fill="#676767" transform="translate(693,53)"/>
<path d="M0 0 C0.66 0 1.32 0 2 0 C1.34 4.29 0.68 8.58 0 13 C-1.32 13.33 -2.64 13.66 -4 14 C-4 13.34 -4 12.68 -4 12 C-3.34 11.67 -2.68 11.34 -2 11 C-1.30906104 8.42048126 -1.30906104 8.42048126 -0.875 5.4375 C-0.70742187 4.42558594 -0.53984375 3.41367188 -0.3671875 2.37109375 C-0.24601563 1.58863281 -0.12484375 0.80617187 0 0 Z " fill="#727272" transform="translate(216,132)"/>
<path d="M0 0 C1.98 0 3.96 0 6 0 C4.88820837 3.33537489 3.52588702 4.63707344 1 7 C1.33 7.99 1.66 8.98 2 10 C1.01 9.67 0.02 9.34 -1 9 C-0.835 8.2575 -0.67 7.515 -0.5 6.75 C0.11925696 3.80993422 0.11925696 3.80993422 0 0 Z " fill="#919191" transform="translate(519,66)"/>
<path d="M0 0 C0.66 0.66 1.32 1.32 2 2 C0.515 4.475 0.515 4.475 -1 7 C0.98 7 2.96 7 5 7 C5 7.66 5 8.32 5 9 C-0.75 9.125 -0.75 9.125 -3 8 C-2.37240135 5.07120629 -1.41377341 2.63904371 0 0 Z " fill="#5D5D5D" transform="translate(381,93)"/>
<path d="M0 0 C0.66 0 1.32 0 2 0 C0.7023817 5.29860806 -1.15015702 9.34525646 -4 14 C-4.66 14 -5.32 14 -6 14 C-6 13.01 -6 12.02 -6 11 C-5.34 11 -4.68 11 -4 11 C-3.71125 10.113125 -3.4225 9.22625 -3.125 8.3125 C-2.16851252 5.49617576 -1.13201054 2.74916844 0 0 Z " fill="#686868" transform="translate(583,104)"/>
<path d="M0 0 C2.66666667 0.66666667 5.33333333 1.33333333 8 2 C8 2.66 8 3.32 8 4 C5.69 4 3.38 4 1 4 C0.67 2.68 0.34 1.36 0 0 Z " fill="#404040" transform="translate(394,98)"/>
<path d="M0 0 C2.97 0 5.94 0 9 0 C9.33 0.66 9.66 1.32 10 2 C6.7 2.33 3.4 2.66 0 3 C0 2.01 0 1.02 0 0 Z " fill="#BBBBBB" transform="translate(630,90)"/>
<path d="M0 0 C2.475 0.495 2.475 0.495 5 1 C5.33 3.31 5.66 5.62 6 8 C5.34 8 4.68 8 4 8 C3.67 6.35 3.34 4.7 3 3 C2.01 2.67 1.02 2.34 0 2 C0 1.34 0 0.68 0 0 Z " fill="#676767" transform="translate(187,80)"/>
<path d="M0 0 C5.75 1.75 5.75 1.75 8 4 C8 5.32 8 6.64 8 8 C7.34 8 6.68 8 6 8 C5.67 7.01 5.34 6.02 5 5 C3.34051852 3.98812105 1.67419438 2.9873454 0 2 C0 1.34 0 0.68 0 0 Z " fill="#656565" transform="translate(767,66)"/>
<path d="M0 0 C0.66 0 1.32 0 2 0 C2.33 2.64 2.66 5.28 3 8 C2.01 8.33 1.02 8.66 0 9 C0 6.03 0 3.06 0 0 Z " fill="#3A3A3A" transform="translate(606,80)"/>
<path d="M0 0 C1.32 0 2.64 0 4 0 C3.34 2.64 2.68 5.28 2 8 C1.34 8 0.68 8 0 8 C0.185625 7.236875 0.37125 6.47375 0.5625 5.6875 C1.22819173 2.91032625 1.22819173 2.91032625 0 0 Z " fill="#7F7F7F" transform="translate(394,120)"/>
<path d="M0 0 C0.66 0 1.32 0 2 0 C2.33 0.99 2.66 1.98 3 3 C3.66 3.33 4.32 3.66 5 4 C4.67 4.99 4.34 5.98 4 7 C3.01 7 2.02 7 1 7 C0.67 4.69 0.34 2.38 0 0 Z " fill="#676767" transform="translate(212,88)"/>
</svg>
